# xmcd
#
# Track frame offsets: 
#        150
#        29090
#        63215
#
# Disc length: 1159 seconds
#
# Revision: 5
# Processed by: cddbd v1.5.2PL0 Copyright (c) Steve Scherf et al.
# Submitted via: ExactAudioCopy v1.0b3
#
DISCID=22048503
DTITLE=Utah Saints - Funky Music [CDM)
DYEAR=2000
DGENRE=Electronic
TTITLE0=Funky Music (Extended Mix)
TTITLE1=Funky Music (Monetshot Mix)
TTITLE2=Funky Music (Krafty Kuts Funked Up Mix)
EXTD=
EXTT0=
EXTT1=
EXTT2=
PLAYORDER=
